<!-- Generated by IcoMoon.io -->
<svg version="1.1" xmlns="http://www.w3.org/2000/svg" width="32" height="32" viewBox="0 0 32 32">
<title>我的</title>
<path fill="#fff" d="M-410.182-10.182h545.455v74.182h-545.455v-74.182z"></path>
<path fill="#ffd300" d="M16.747 19.106c4.686 0 8.485-3.799 8.485-8.485s-3.799-8.485-8.485-8.485c-4.686 0-8.485 3.799-8.485 8.485s3.799 8.485 8.485 8.485zM4.364 26.182h27.636v4.364h-27.636v-4.364z"></path>
<path fill="#454f5b" d="M0 31.279v-6.156c0-1.607 1.302-2.909 2.909-2.909h23.12c1.607 0 2.909 1.302 2.909 2.909v6.156h-28.938zM1.455 29.825h26.029v-4.702c0-0.803-0.651-1.455-1.455-1.455h-23.12c-0.803 0-1.455 0.651-1.455 1.455v4.702z"></path>
<path fill="#454f5b" d="M13.838 19.833c-5.088 0-9.212-4.124-9.212-9.212s4.124-9.212 9.212-9.212c5.088 0 9.212 4.124 9.212 9.212s-4.124 9.212-9.212 9.212zM13.838 18.379c4.284 0 7.758-3.473 7.758-7.758s-3.473-7.758-7.758-7.758c-4.284 0-7.758 3.473-7.758 7.758s3.473 7.758 7.758 7.758z"></path>
</svg>
