<!-- Generated by IcoMoon.io -->
<svg version="1.1" xmlns="http://www.w3.org/2000/svg" width="33" height="32" viewBox="0 0 33 32">
<title>游记</title>
<path fill="#fff" d="M-98.783-9.739h521.739v70.957h-521.739v-70.957z"></path>
<path fill="#ffd300" d="M7.791 1.67h24.363v28.621h-24.363c-1.537 0-2.783-1.246-2.783-2.783v-23.056c0-1.537 1.246-2.783 2.783-2.783z"></path>
<path fill="#454f5b" d="M28.119 2.365h-23.667c-1.153 0-2.087 0.934-2.087 2.087v23.056c0 1.153 0.934 2.087 2.087 2.087h23.667v-27.23zM4.452 0.974h25.058v30.012h-25.058c-1.921 0-3.478-1.557-3.478-3.478v-23.056c0-1.921 1.557-3.478 3.478-3.478z"></path>
<path fill="#454f5b" d="M8.37 2.362v9.787c3.357-2.112 3.653-2.291 3.952-2.291 0.297 0 0.607 0.186 4.010 2.3v-9.795h-7.962zM12.519 11.227c0.011-0.006 0.025-0.012 0.041-0.021-0.007 0.004-0.015 0.008-0.023 0.012l-0.018 0.009zM12.086 11.208c0.015 0.008 0.028 0.014 0.038 0.019-0.016-0.008-0.028-0.014-0.038-0.019zM11.716 11.704c-0.605 0.37-1.498 0.925-2.677 1.667-0.629 0.396-1.459 0.206-1.855-0.422-0.135-0.215-0.207-0.463-0.207-0.716v-11.262h10.745l-0 11.27c0 0.743-0.602 1.345-1.345 1.345-0.251 0-0.497-0.070-0.71-0.203-1.199-0.745-2.107-1.303-2.723-1.674-0.261-0.157-0.469-0.281-0.622-0.369-0.15 0.088-0.353 0.21-0.607 0.365z"></path>
<path fill="#454f5b" d="M27.84 24.98h-23.451c-1.207 0-2.186 0.979-2.186 2.186s0.979 2.186 2.186 2.186h23.451v-4.373zM4.388 23.589h24.843v7.155h-24.843c-1.976 0-3.578-1.602-3.578-3.578s1.602-3.578 3.578-3.578z"></path>
</svg>
